<svg xmlns="http://www.w3.org/2000/svg" xmlns:xlink="http://www.w3.org/1999/xlink" width="429" height="370" viewBox="0 0 429 370">
  <defs>
    <rect id="freelancing-a" width="111" height="154" rx="55.5"/>
    <circle id="freelancing-c" cx="27" cy="27" r="27"/>
    <rect id="freelancing-e" width="18" height="33" rx="9"/>
    <rect id="freelancing-g" width="18" height="47" rx="9"/>
  </defs>
  <g fill="none" fill-rule="evenodd" transform="translate(0 -1)">
    <g transform="translate(133)">
      <path fill="#F3F3F3" d="M91.5761719,303.082031 C54.3688852,288.603318 41.328125,283.847656 22.234375,258.298828 C9.50520833,241.266276 2.1875,220.666016 0.28125,196.498047 C2.20963542,170.494141 11.7408854,152.214844 28.875,141.660156 C54.5761719,125.828125 82.6738281,132.613281 82.6738281,91.25 C82.6738281,49.8867188 78.3144531,29.9707031 123.767578,9.6015625 C169.220703,-10.7675781 211.035156,9.6015625 226.103516,23.4394531 C240.042969,36.3554687 275.205078,78.59375 251.798828,119.173828 C228.392578,159.753906 212.339844,156.673828 221.708984,177.935547 C231.078125,199.197266 298.462891,217.814453 295.630859,254.990234 C293.742839,279.774089 279.960938,295.121094 254.285156,301.03125 C239.395833,305.854167 204.847005,308.265625 150.638672,308.265625 C137.111328,310.28125 117.423828,308.553385 91.5761719,303.082031 Z"/>
      <circle cx="254" cy="172" r="20" fill="#F4F4F4"/>
    </g>
    <g transform="translate(133 4)">
      <path stroke="#F5C49B" stroke-linecap="round" stroke-linejoin="round" stroke-width="19" d="M57,148 C45.2026668,170.666667 26.2026668,193.333333 0,216"/>
      <rect width="25" height="44" x="54" y="108" fill="#0095BD" rx="12.5" transform="rotate(32 66.5 130)"/>
      <g transform="translate(67 87)">
        <mask id="freelancing-b" fill="#fff">
          <use xlink:href="#freelancing-a"/>
        </mask>
        <use fill="#3AC1E3" xlink:href="#freelancing-a"/>
        <circle cx="58.5" cy="-17.5" r="29.5" fill="#2FA9C8" mask="url(#freelancing-b)"/>
      </g>
      <g transform="translate(95 42)">
        <mask id="freelancing-d" fill="#fff">
          <use xlink:href="#freelancing-c"/>
        </mask>
        <use fill="#E8C3AD" xlink:href="#freelancing-c"/>
        <path fill="#D5B19B" d="M-17.523285,-15.7145992 C-17.523285,4.71993653 -0.733963166,21.2854008 19.976715,21.2854008 C40.6873931,21.2854008 57.476715,4.71993653 57.476715,-15.7145992" mask="url(#freelancing-d)" transform="rotate(51 19.977 2.785)"/>
      </g>
      <path fill="#14123D" d="M73,23 C73,43.4345357 89.7893219,60 110.5,60 C131.210678,60 148,43.4345357 148,23" transform="rotate(51 110.5 41.5)"/>
      <path stroke="#F5C49B" stroke-linecap="round" stroke-linejoin="round" stroke-width="19" d="M143,148 C131.202667,170.666667 112.202667,193.333333 86,216"/>
      <rect width="25" height="44" x="142" y="108" fill="#0095BD" rx="12.5" transform="rotate(32 154.5 130)"/>
    </g>
    <g transform="translate(37 165)">
      <path fill="#DAD5D5" d="M2,11 L27,11 L22.2516138,40.3197378 C22.0947582,41.2882702 21.258489,42 20.2773373,42 L8.99614097,42 C8.02185078,42 7.18932443,41.2979427 7.02484655,40.3376363 L2,11 Z"/>
      <rect width="28" height="4" y="7" fill="#F5F5F5"/>
      <polygon fill="#DCDCDC" points="2.531 7 6.771 0 21.964 0 26.007 7"/>
      <polygon fill="#97C63F" points="1.795 17.935 27.224 17.935 24.868 30.697 3.942 30.697"/>
    </g>
    <g transform="translate(0 207)">
      <rect width="421" height="25" fill="#FFB638" rx="6"/>
      <rect width="18" height="140" x="23" y="24" fill="#FF983B"/>
      <rect width="18" height="140" x="373" y="24" fill="#FF973B"/>
      <rect width="333" height="92" x="40" y="24" fill="#FFB638"/>
      <rect width="368" height="14" x="23" y="24" fill="#000" fill-opacity=".041"/>
    </g>
    <g transform="translate(54 102)">
      <rect width="120" height="85" x="7" fill="#CDE5EE" rx="8"/>
      <rect width="120" height="85" fill="#A7CBD7" rx="8"/>
      <path fill="#88B5C3" d="M51.6127484,32 L69.4993403,32 C74.7970261,32 79.1754403,36.1315621 79.4825259,41.4203401 L82.6928533,96.7101701 C82.852922,99.4669506 80.7478711,101.831524 77.9910905,101.991593 C77.8945821,101.997196 77.7979315,102 77.7012606,102 L41.4856432,102 C38.7242194,102 36.4856432,99.7614237 36.4856432,97 C36.4856432,96.8456992 36.4927858,96.6914811 36.5070481,96.5378408 L41.6555582,41.0756816 C42.1329439,35.9330603 46.4480169,32 51.6127484,32 Z"/>
      <path fill="#CEE5EE" d="M49.6584126,31 L67.4697249,31 C72.7794894,31 77.163475,35.1498027 77.4546751,40.4515762 L80.7103137,99.7257881 C80.8617567,102.483056 78.7493183,104.841032 75.9920505,104.992475 C75.9007325,104.997491 75.8092942,105 75.7178386,105 L39.4582973,105 C36.6968736,105 34.4582973,102.761424 34.4582973,100 C34.4582973,99.8539987 34.4646922,99.7080674 34.4774637,99.5626258 L39.6967454,40.1252516 C40.1501992,34.961302 44.4745921,31 49.6584126,31 Z"/>
      <circle cx="58" cy="51" r="8" fill="#A7CBD7"/>
      <rect width="36" height="6" x="74" y="99" fill="#CEE5EE" rx="3"/>
    </g>
    <g transform="translate(325 126)">
      <g transform="translate(30 14)">
        <mask id="freelancing-f" fill="#fff">
          <use xlink:href="#freelancing-e"/>
        </mask>
        <use fill="#88B235" xlink:href="#freelancing-e"/>
        <rect width="5" height="26" x="-1" y="-1" fill="#759A2E" mask="url(#freelancing-f)"/>
      </g>
      <g transform="translate(14)">
        <mask id="freelancing-h" fill="#fff">
          <use xlink:href="#freelancing-g"/>
        </mask>
        <use fill="#97C43F" xlink:href="#freelancing-g"/>
        <rect width="5" height="40" x="-3" y="-2" fill="#A4D24C" mask="url(#freelancing-h)"/>
      </g>
      <polygon fill="#E15A28" points="3.43 38 59.698 38 62 50 0 50"/>
      <polygon fill="#E78C27" points="6 50 10.924 81 51.561 81 56 50"/>
      <polygon fill="#000" fill-opacity=".079" points="5.961 50.001 6.726 53.118 55.479 53.118 56.11 50.001"/>
      <g stroke="#5C5C5C" stroke-linecap="square" transform="translate(12 3)">
        <path d="M35.5 24.5L37.5 23.5M28.5 18.5L27.5 16.5M3.5 7.5L.5 6.5M16.5 2.5L18.5.5M14.5 14.5L13.5 12.5M3.5 27.5L1.5 25.5M18.5 28.5L17.5 25.5M27.5 28.5L28.5 26.5M33.5 13.5L34.5 12.5M23.5 14.5L22.5 12.5"/>
      </g>
    </g>
  </g>
</svg>
