<svg xmlns="http://www.w3.org/2000/svg" width="497" height="167" viewBox="0 0 497 167">
  <g fill="none" fill-rule="evenodd">
    <g fill-rule="nonzero">
      <path fill="#3D7606" d="M76.1428571,0 C56.7339217,0 41,15.7339217 41,35.1428571 C41,15.7339217 25.2660783,0 5.85714286,0 L0,0 L0,5.85714286 C0,25.2660783 15.7339217,41 35.1428571,41 L46.8571429,41 C49.0693012,40.9942801 51.2743093,40.7797853 53.4464286,40.3622347 C55.7887139,39.5585938 58.1696081,38.820731 60.6305804,38.1915458 C73.590367,32.6704451 82.0014299,19.9437431 82,5.85714286 L82,0 L76.1428571,0 Z"/>
      <path fill="#468707" d="M40.5646379,44 C39.780653,44 39.0284318,43.6918021 38.4740116,43.1438948 L19.8662817,24.7547561 C18.7112394,23.6132826 18.7112394,21.7640955 19.8662817,20.6226219 C21.0213239,19.4811484 22.8924922,19.4811484 24.0475344,20.6226219 L38.4740116,34.8796264 C39.6290538,36.0211 41.5002221,36.0211 42.6552643,34.8796264 L65.9524656,11.8561052 C67.1075078,10.7146316 68.9786761,10.7146316 70.1337183,11.8561052 C71.2887606,12.9975787 71.2887606,14.8467658 70.1337183,15.9882394 L42.6552643,43.1438948 C42.1008441,43.6918021 41.3486229,44 40.5646379,44 Z"/>
      <path fill="#3D7606" d="M145.503774,55 C160.634121,50.5034722 171.001453,36.6478589 171,20.9259259 L171,15 L165.048411,15 C147.940497,15.005787 133.241698,27.0920141 130,43.8179978"/>
      <path fill="#468707" d="M138.886308,42.0124288 L161.835778,19.8557457 C163.017522,18.7147514 164.931948,18.7147514 166.113692,19.8557457 C167.295436,20.9953139 167.295436,22.8451508 166.113692,23.9861451 L143.164222,46.1442543 C141.982478,47.2852486 140.068052,47.2852486 138.886308,46.1442543 C137.704564,45.00326 137.704564,43.1534231 138.886308,42.0124288 Z"/>
      <path fill="#F0B706" d="M163.370185,73.3731352 L163.219028,73.3731352 C160.135431,73.3284027 157.367103,71.4655153 156.157849,68.6214009 C147.056775,48.3071228 118.547178,32.0000015 85.5,32.0000015 C77.2468431,31.9985586 69.0267964,33.0317326 61.029886,35.0764357 C58.5523554,35.7113471 56.1496835,36.4559249 53.7973968,37.2668797 C35.2411099,43.6578402 20.8207588,55.2550734 14.8320734,68.6214009 C13.6256987,71.4626292 10.86169,73.3255169 7.78097209,73.3731352 L7.62981546,73.3731352 C3.41614181,73.3731352 0,76.7973276 0,81.0209313 L0,83.4566822 C0,87.6802859 3.41614181,91.1044782 7.62981546,91.1044782 L7.78097209,91.1044782 C10.8703277,91.1434388 13.6458531,93.0063266 14.8565463,95.8562125 C22.3308863,112.574584 42.9803341,126.567164 68.4711157,131 C64.7915293,109.375496 77.4613416,88.3108682 98.2561876,81.4769131 C119.052473,74.6429579 141.704388,84.1002512 151.5123,103.711798 C153.333378,101.264503 154.891012,98.6325068 156.157849,95.8562125 C157.367103,93.0120981 160.135431,91.1492107 163.219028,91.1044782 L163.370185,91.1044782 C167.583858,91.1044782 171,87.6802859 171,83.4566822 L171,81.0209313 C171,76.7973276 167.583858,73.3731352 163.370185,73.3731352 Z"/>
      <g fill="#FFC206" transform="translate(32 47)">
        <path d="M2.96428571 20.2222222C4.60130101 20.2222222 5.92857143 21.5157334 5.92857143 23.1111111 5.92857143 24.7064888 4.60130101 26 2.96428571 26 1.32727042 26 0 24.7064888 0 23.1111111 0 21.5157334 1.32727042 20.2222222 2.96428571 20.2222222zM23.7142857 0C25.351301 0 26.6785714 1.29351119 26.6785714 2.88888889 26.6785714 4.48426658 25.351301 5.77777778 23.7142857 5.77777778 22.0772704 5.77777778 20.75 4.48426658 20.75 2.88888889 20.75 1.29351119 22.0772704 0 23.7142857 0zM50.3928571 5.77777778C52.0298724 5.77777778 53.3571429 7.07128897 53.3571429 8.66666667 53.3571429 10.2620444 52.0298724 11.5555556 50.3928571 11.5555556 48.7558418 11.5555556 47.4285714 10.2620444 47.4285714 8.66666667 47.4285714 7.07128897 48.7558418 5.77777778 50.3928571 5.77777778zM80.0357143 8.66666667C81.6727296 8.66666667 83 9.96017786 83 11.5555556 83 13.1509333 81.6727296 14.4444444 80.0357143 14.4444444 78.398699 14.4444444 77.0714286 13.1509333 77.0714286 11.5555556 77.0714286 9.96017786 78.398699 8.66666667 80.0357143 8.66666667z"/>
      </g>
      <path fill="#F9EDA8" d="M155,123 C155,147.300261 135.300261,167 111,167 C86.6997394,167 67,147.300261 67,123 C67,98.6997394 86.6997394,79 111,79 C135.300261,79 155,98.6997394 155,123 Z"/>
      <path fill="#F5C763" d="M146,123.5 C146,143.106181 130.330037,159 111,159 C91.6699627,159 76,143.106181 76,123.5 C76,103.893819 91.6699627,88 111,88 C130.330037,88 146,103.893819 146,123.5 Z"/>
      <path fill="#F9EDA8" d="M141.090909,120.545455 L119.022727,120.545455 L134.62642,104.697954 C135.762784,103.543834 135.762784,101.672719 134.62642,100.520042 C133.491477,99.3659225 131.649148,99.3659225 130.512784,100.520042 L114.909091,116.367543 L114.909091,93.9545455 C114.909091,92.3229092 113.606534,91 112,91 C110.393466,91 109.090909,92.3229092 109.090909,93.9545455 L109.090909,116.367543 L93.487216,100.520042 C92.3508524,99.3659225 90.5085229,99.3659225 89.3735796,100.520042 C88.237216,101.672719 88.237216,103.543834 89.3735796,104.697954 L104.977273,120.545455 L82.9090909,120.545455 C81.3025567,120.545455 80,121.868364 80,123.5 C80,125.131636 81.3025567,126.454545 82.9090909,126.454545 L104.977273,126.454545 L89.3735796,142.302046 C88.237216,143.456166 88.237216,145.327281 89.3735796,146.479958 C90.5085229,147.634078 92.3508524,147.634078 93.487216,146.479958 L109.090909,130.632457 L109.090909,153.045455 C109.090909,154.677091 110.393466,156 112,156 C113.606534,156 114.909091,154.677091 114.909091,153.045455 L114.909091,130.632457 L130.512784,146.479958 C131.649148,147.634078 133.491477,147.634078 134.62642,146.479958 C135.762784,145.327281 135.762784,143.456166 134.62642,142.302046 L119.022727,126.454545 L141.090909,126.454545 C142.697443,126.454545 144,125.131636 144,123.5 C144,121.868364 142.697443,120.545455 141.090909,120.545455 Z"/>
    </g>
    <text fill="#606060" font-family="STHeitiSC-Medium, Heiti SC" font-size="134" font-weight="bold" letter-spacing="4.963">
      <tspan x="221" y="132">lime</tspan>
    </text>
    <text fill="#606060" font-family="STHeitiSC-Medium, Heiti SC" font-size="36" font-weight="bold" letter-spacing="4.963">
      <tspan x="412" y="41">v1.0</tspan>
    </text>
  </g>
</svg>
